<svg width="282" height="281" viewBox="0 0 282 281" fill="none" xmlns="http://www.w3.org/2000/svg">
<path fill-rule="evenodd" clip-rule="evenodd" d="M75.9469 280.078C91.5033 280.078 105.96 275.398 117.97 267.376C130.585 258.951 151.308 258.951 163.924 267.376C175.934 275.398 190.39 280.078 205.947 280.078C247.615 280.078 281.394 246.499 281.394 205.078C281.394 189.768 276.779 175.529 268.856 163.661C260.282 150.817 260.282 129.339 268.856 116.496C276.779 104.628 281.394 90.3887 281.394 75.0781C281.394 33.6568 247.615 0.078125 205.947 0.078125C190.39 0.078125 175.934 4.75843 163.924 12.7798C151.308 21.2056 130.585 21.2056 117.97 12.7798C105.96 4.75843 91.5033 0.078125 75.9469 0.078125C34.2787 0.078125 0.5 33.6568 0.5 75.0781C0.5 90.3887 5.11505 104.628 13.0377 116.496C21.6119 129.339 21.6119 150.817 13.0377 163.661C5.11505 175.529 0.5 189.768 0.5 205.078C0.5 246.499 34.2787 280.078 75.9469 280.078Z" fill="green"/>
</svg>
