<svg width="401" height="401" viewBox="0 0 401 401" fill="none" xmlns="http://www.w3.org/2000/svg">
<path d="M184.218 4.26754C194.176 -1.31835 206.324 -1.31835 216.282 4.26754L240.677 17.9521C245.454 20.6316 250.826 22.0711 256.302 22.139L284.272 22.4854C295.688 22.6268 306.208 28.7005 312.039 38.517L326.324 62.5657C329.121 67.2747 333.053 71.2075 337.762 74.0045L361.811 88.2891C371.628 94.1199 377.701 104.64 377.843 116.057L378.189 144.026C378.257 149.502 379.697 154.875 382.376 159.651L396.061 184.047C401.646 194.004 401.646 206.152 396.061 216.11L382.376 240.505C379.697 245.282 378.257 250.654 378.189 256.131L377.843 284.1C377.701 295.516 371.628 306.036 361.811 311.867L337.762 326.152C333.053 328.949 329.121 332.882 326.324 337.591L312.039 361.639C306.208 371.456 295.688 377.529 284.272 377.671L256.302 378.017C250.826 378.085 245.454 379.525 240.677 382.204L216.282 395.889C206.324 401.475 194.176 401.475 184.218 395.889L159.823 382.204C155.046 379.525 149.674 378.085 144.198 378.017L116.228 377.671C104.812 377.529 94.2918 371.456 88.461 361.639L74.1764 337.591C71.3794 332.882 67.4466 328.949 62.7376 326.152L38.6888 311.867C28.8724 306.036 22.7987 295.516 22.6573 284.1L22.3109 256.131C22.243 250.654 20.8035 245.282 18.124 240.505L4.43942 216.11C-1.14647 206.152 -1.14647 194.004 4.43941 184.047L18.124 159.651C20.8035 154.875 22.243 149.502 22.3109 144.026L22.6573 116.057C22.7987 104.64 28.8724 94.1199 38.6888 88.2891L62.7376 74.0045C67.4466 71.2075 71.3793 67.2747 74.1764 62.5657L88.461 38.517C94.2918 28.7005 104.812 22.6268 116.228 22.4854L144.198 22.139C149.674 22.0711 155.046 20.6316 159.823 17.9521L184.218 4.26754Z" fill="red"/>
</svg>
